<?xml version="1.0" standalone="no"?>
<!DOCTYPE svg PUBLIC "-//W3C//DTD SVG 20010904//EN" "http://www.w3.org/TR/2001/REC-SVG-20010904/DTD/svg10.dtd">
<svg version="1.0" xmlns="http://www.w3.org/2000/svg" width="240mm" height="117mm" viewBox="0 0 2400 1170">
	<g id="Regions_of_Slovakia" transform="translate(0,1170) scale(0.1,-0.1)" fill="#000" stroke="none">
		<title>Regions of Slovakia, by Adam Stanislav</title>

		<path d="M11049 11661c-13-30-23-39-49-44-21-5-49-25-80-57-32-33-56-50-72-50-26 0-39-9-77-53-19-20-28-47-35-105l-11-77-160-2c-228-2-218 1-302-90-62-66-73-83-73-113 0-19-8-51-19-70-26-50-43-129-39-185 3-47 2-49-28-57-35-9-113-88-115-115-1-10-1-41 1-69l2-51-48-12c-26-7-65-9-87-6-27 5-50 2-76-10-37-16-38-16-77 10-21 14-41 31-45 36-14 24-81 28-143 9-65-20-107-55-125-102-12-33-37-36-84-11-18 9-45 19-61 22-39 9-42 22-11 59 32 38 34 105 5 162-11 22-20 46-20 54 0 8-12 29-27 46-22 27-27 44-31 110-6 105 0 127 43 144 20 9 38 22 41 31 9 24-52 83-94 91-18 4-45 17-60 29-25 21-39 22-220 27-153 5-197 9-217 22-13 9-41 16-61 16-46 0-186-47-197-66-4-8-15-14-22-14-8 0-25-10-37-22-12-12-42-32-67-44-38-20-48-21-61-10-32 27-121 66-152 66-18 0-44 9-58 20-29 23-82 26-99 6-6-7-36-16-67-19-30-3-66-13-79-21-32-21-33-21-49 18-19 46-64 60-169 54-67-4-83-8-98-26-9-12-21-22-26-22-13 0-77-70-101-111-24-39-22-89 4-110 24-20 16-28-42-45-53-15-56-18-51-43 5-23-1-35-34-67-22-21-47-56-55-76-9-21-20-38-24-38-4 0-23-25-41-54-41-66-92-95-136-78-48 18-110 24-132 12-12-6-29-27-40-48-10-20-28-46-40-56-37-34-21-85 32-105 35-14 36-53 2-93-14-16-25-35-25-42 0-7-8-21-19-30-10-9-21-30-25-47-3-16-12-29-20-29-7 0-20-9-27-21-11-15-30-22-82-29-37-4-74-13-81-19-7-6-32-18-56-26-24-9-52-23-62-32-45-40-174-71-303-72-71-1-88-5-145-35l-65-34-10-58c-10-55-13-59-45-69-49-14-60-23-60-49 0-13-13-37-29-54-36-37-50-107-31-152 22-54-10-169-59-214-11-10-23-34-27-52-3-19-10-34-15-34-4 0-13-9-19-21-9-16-7-27 9-55 27-45 26-58-4-78-17-11-25-26-25-46 0-23-7-33-30-45-25-13-30-22-30-51 0-19 6-47 13-62 7-16 12-59 10-107-1-44-2-92-2-106-1-24-12-42-80-130-11-14-23-39-27-55-11-43-32-72-82-110-30-22-56-34-77-34-18 0-44-9-58-20-14-11-34-20-44-20-10 0-26 9-36 20-19 22-85 28-104 9-9-9-20-8-45 2-18 7-65 13-104 13-67-1-73-3-128-43-65-48-86-87-86-156 0-26-7-57-17-71-10-15-18-54-21-100-4-70-6-75-31-80-47-10-51-13-68-49-14-29-15-38-3-59 22-41 8-58-42-49-24 5-104 8-178 8-124 0-139-2-177-24-24-14-46-36-51-50-16-43-58-81-91-81-45 0-61-23-61-86 0-48-2-54-21-54-39 0-111-23-116-38-4-8 1-19 10-24 29-16 19-35-21-42-20-3-66-6-102-6-115-2-155-13-209-58-27-23-54-42-60-42-11 0-61-49-76-75-10-16-29-18-169-19l-158-1-41 46c-67 73-109 99-160 99-28 0-49-6-57-15-7-8-31-23-54-33-22-11-47-26-55-35-7-10-18-17-23-17-5 0-29-15-52-34-30-25-46-32-56-26-8 6-34 10-57 10-29 0-50 7-70 23-15 13-36 26-46 30-9 4-21 17-26 30-16 40-60 85-97 97-60 20-83 36-107 71-19 28-34 37-83 49-34 8-69 21-78 29-10 8-43 17-74 19-35 3-67 13-83 25-15 11-38 20-52 20-27 0-29-2-141-111-44-42-95-83-115-90-56-22-114-40-142-46-35-7-50-45-56-139-5-60-10-81-24-91-10-7-24-30-31-52-9-27-22-43-43-53-16-7-39-21-50-31-11-10-33-25-50-33-51-26-95-74-95-102 0-14-10-36-23-48-13-12-27-34-31-49-3-15-16-38-29-51-34-38-59-74-98-146-33-61-37-66-66-63-24 2-36-3-52-24-30-39-27-70 9-89 36-18 37-31 8-62-17-19-23-40-28-106-5-57-15-99-32-137-26-56-56-78-160-119-32-12-36-36-11-71 14-20 18-48 19-135 1-76 6-121 17-145 22-51 31-124 18-149-7-11-28-29-49-40-38-19-78-65-99-113-6-15-26-34-45-44-40-20-44-26-52-73-3-23-17-48-37-66-17-17-60-64-95-106l-64-77 0-65c0-45 5-70 15-81 20-19 19-34-5-81-11-22-17-47-14-57 8-28-6-78-22-78-11 0-14-27-14-150 0-128 2-150 15-150 9 0 18-7 21-15 3-8 20-19 38-25 18-5 49-30 69-55 21-25 47-45 57-45 28 0 32-15 10-35-27-25-28-112-1-146 10-13 23-40 30-59 6-20 20-43 31-53 11-9 20-24 20-32 0-24 59-70 97-75 44-6 50-19 23-50-33-39-32-138 4-180 14-18 25-47 29-78 3-28 13-64 21-81 19-36 21-119 4-157-13-28-16-23 59-84 7-6 24-15 38-20 14-5 25-15 25-22 0-17 99-122 123-131 9-3 22-18 27-32 10-26 13-27 65-29 30-1 30-1 30-60 0-42 4-61 15-66 8-4 28-13 44-21 41-19 54-62 29-96-44-63-44-63-38-190 4-81 2-130-5-143-21-39-2-87 47-120 49-33 65-37 82-16 7 8 23 17 37 20 32 8 114-57 114-91 0-12 10-29 22-37 31-22 126-21 158 1 28 19 91 33 173 37 58 3 59 3 82-33 32-51 100-114 133-124 15-4 63-4 108-1 53 4 88 3 102-5 12-6 51-49 86-94 108-137 116-145 161-174 25-15 47-37 51-48 8-27 54-95 81-122 13-12 23-30 23-40 0-10 9-33 20-51 11-18 20-42 20-55 1-55 77-157 118-157 5 0 21-9 34-19 12-11 39-34 59-50 29-25 46-31 82-31 38 0 50-5 81-36 30-30 36-43 36-79 0-26 7-51 19-66 10-13 24-41 30-61 7-20 28-51 48-68 40-36 77-37 145-7 34 16 37 16 62-4 15-12 33-35 40-53 14-35 107-119 142-130 27-8 139-118 169-166 42-66 63-76 225-115 73-17 91-25 114-47 15-17 27-19 75-14 73 8 83 8 168 0 57-5 76-3 94 10 30 21 48 20 72-2 17-15 39-17 181-14 160 3 161 3 182 29 30 38 96 38 150 1 48-34 70-35 101-6 32 30 96 37 262 27 120-7 148-12 165-27 13-12 44-22 81-26 38-4 67-14 80-26 12-11 33-20 47-20 33 0 88-19 88-31 0-15 40-10 56 6 21 20 117 20 138 0 12-13 61-15 312-15 260 0 298 2 308 16 7 9 34 20 62 25 27 5 65 15 84 23 19 8 52 17 73 21 20 3 46 15 56 26 13 14 33 21 63 22 37 2 51-4 89-35 67-55 94-63 138-40 20 11 51 23 68 26 19 4 35 15 38 27 6 17 16 19 103 19 86 0 98-2 120-22 22-22 31-23 184-23 152 0 161 1 177 22 10 12 36 25 57 29 36 6 56 19 121 73 13 11 52 33 88 51 69 33 75 44 54 96-21 56-7 70 73 79 85 10 158 10 284 0 107-9 123-3 153 56l22 42-23 26c-36 41-50 51-75 51-24 0-43 26-43 58 0 28-62 89-98 97-17 3-38 17-46 30-9 14-34 35-56 47-39 23-39 23-39 83 1 33-2 92-6 131-7 67-6 72 18 98 31 33 41 86 35 190-3 60-8 79-26 99-12 13-22 26-22 30 0 4 29 7 64 7 36 0 76 4 90 10 66 25 114 124 100 209-4 28-1 46 15 72 12 19 21 51 21 72 0 20 3 37 8 37 4 1 79 3 167 6 110 3 164 9 175 18 30 26 39 26 65 2 50-46 159-46 189 0 9 13 26 24 37 24 11 0 32 13 47 29 49 52 67 56 110 23 81-63 164-72 216-23 26 24 58 27 75 7 22-26 68-29 104-8 54 33 74 35 97 12 26-26 99-41 216-44 76-2 95-5 119-24 38-30 98-30 128 1 12 13 30 38 39 55 14 26 23 32 50 32 19 0 41 8 53 20 70 69 65 68 253 68 159 0 173-1 183-19 12-22 41-24 77-5 31 16 151 51 155 45 2-2 11-16 20-31 15-24 24-28 62-28 39 0 46 4 60 29 8 16 31 42 50 58 28 24 41 46 60 109 14 43 25 102 25 131 0 56 19 85 83 126 35 23 36 65 3 105-29 33-26 63 9 86 13 9 26 29 30 45 10 48 41 78 98 96 62 21 140 70 183 116 47 50 103 99 114 99 6 0 19-9 30-20 11-11 33-20 48-20 38 0 71-36 86-96 11-44 18-52 69-82 48-28 67-33 119-33 55-1 65 2 83 25 26 32 74 35 100 6 9-10 33-24 51-30 19-7 34-17 34-25 0-7 11-20 25-29 32-21 32-46 0-80-48-52-45-145 6-171 16-9 29-20 29-25 0-6 13-10 29-10 20 0 37 9 55 31 14 17 26 35 26 40 0 6 23 7 58 3 44-5 66-2 88 9 24 12 40 13 79 5 90-18 118-71 75-140-21-35-25-74-10-98 7-12 27-14 91-13 78 2 82 4 123 40 22 20 46 50 53 65 7 17 27 35 48 44 19 8 35 19 35 24 0 20 83 69 135 80 29 6 59 18 65 26 17 20 28 18 62-11 42-35 86-33 123 5 16 17 34 30 41 30 15 0 62 62 75 99 6 16 21 37 35 46 13 8 24 22 24 30 0 8 5 15 10 15 6 0 21 10 34 23 12 12 41 35 64 51 25 17 45 40 48 55 4 14 13 37 21 50 9 13 19 36 23 50 6 26 7 26 116 26l109 0 49 47c27 27 55 48 61 48 6 0 24 14 38 30 31 35 45 37 78 11 33-25 117-61 144-61 34 0 93 28 105 49 5 11 26 25 45 31 36 12 55 35 55 67 0 22 55 131 79 155 9 9 34 23 56 30 48 16 68 49 59 99-10 66 10 111 76 169 32 30 63 65 69 79 5 14 11 63 14 108 3 59 9 88 20 101 21 24 21 42 0 88-17 35-17 36 2 50 40 29 107 99 121 126 8 15 21 28 28 28 29 0 74 50 85 95 6 25 15 45 20 45 4 0 25 21 44 48 20 26 45 56 56 67 14 13 24 43 30 87 5 37 12 72 16 77 3 6 1 20-5 32-17 31-6 53 20 39 33-17 87 5 106 43 22 42 21 42 40 26 11-9 42-14 85-14 57 0 71 3 89 23 13 14 32 22 53 22 35 0 150 50 182 80 13 12 41 19 80 22 40 3 71 11 90 25 26 18 55 22 240 33 144 8 215 16 225 25 15 13 39 18 71 16 9 0 20-12 23-25 3-14 20-35 36-48 17-13 44-35 60-50 40-36 81-42 168-24 40 9 75 16 77 16 2 0 16-22 31-49 15-28 38-55 53-61 14-6 40-33 57-58l31-47 72-3c63-3 79 1 116 23 52 30 83 31 133 6 21-10 68-20 109-23 40-3 79-11 88-18 8-7 17-34 21-61 6-42 12-53 52-84 65-50 100-48 168 11 30 25 54 52 54 60 0 7 16 28 36 46 29 27 47 34 95 39 38 4 71 14 89 27 25 19 37 21 117 15 48-3 113-12 143-19 95-24 138-19 200 24 51 36 56 42 70 100 8 34 23 71 32 82 18 21 32 22 268 26 36 0 72 2 80 3 8 1 30 26 49 56 18 30 35 55 37 55 1 0 18-13 36-30 18-16 40-30 49-30 10 0 30-11 46-24 15-13 38-26 50-30 31-10 83-73 83-101 0-13 8-32 19-42 10-10 21-34 25-54 3-20 17-45 31-57 14-12 25-26 25-31 0-4 17-20 38-34 30-21 51-27 112-29 41-2 89 1 105 5 28 7 33 4 57-31 20-32 26-56 30-123 4-71 8-85 26-97 14-9 22-25 22-42 0-15 9-39 20-52 22-29 18-38-20-38-14 0-31-5-38-12-15-15-16-95-1-104 7-4 42-9 80-12 59-4 69-8 75-26 3-11 12-28 19-36 7-8 15-44 17-79 5-73 28-101 80-101 46 0 66-16 73-60 4-22 11-43 17-46 5-3 18-26 28-50 13-30 25-44 38-44 11 0 40-11 66-25 26-14 55-25 66-25 10 0 32-11 48-25 27-23 38-25 122-25 64 0 102-5 126-16 33-16 37-15 74 1 22 10 40 22 40 26 0 4 11 20 25 35 27 29 32 53 14 71-19 19 10 26 51 13 47-16 123 0 158 33 20 18 26 20 55 9 61-22 84-16 106 27 25 47 58 61 150 61 66 0 158 28 196 60 14 12 20 11 43-4 62-40 91-48 128-34 33 12 37 11 53-11 18-23 22-24 97-18 53 4 99 15 139 32 67 30 75 38 75 77 0 20 7 28 29 36 22 8 30 18 35 45 8 41 1 61-32 94l-25 25 7 143c4 78 16 196 26 261 13 77 23 194 27 329 5 170 9 217 23 245 10 19 20 52 24 72 5 29 24 55 81 113 64 64 80 75 109 75 25 0 38 6 50 24 8 14 26 36 38 49 13 14 38 45 56 70 22 30 43 48 63 52 41 9 59 31 53 63-4 23 2 33 50 71 31 24 56 48 56 52 0 5 19 12 42 15 63 11 97 47 105 114 3 30 13 69 23 85 10 17 20 47 23 68 3 20 15 49 26 64 35 44 28 87-24 142-25 26-45 57-45 69 0 11 14 31 31 44 66 49 98 90 108 139 6 26 20 63 31 81 28 46 27 101-2 120-22 15-23 22-23 141l0 126 33 31c18 16 43 30 55 30 48 0 67 36 67 127 0 51 5 75 20 98 15 22 20 47 20 96 0 54 4 71 25 99 14 19 25 39 25 45 0 7 11 24 24 38 13 14 27 40 31 56 3 17 14 33 23 36 20 7 67 79 76 117 5 24 12 27 64 33 31 3 64 10 72 16 8 5 28 17 44 27 65 39 71 48 71 100 0 39 5 56 23 74 21 23 22 35 25 183 3 133 6 160 20 170 12 9 17 27 17 64l0 51-42 0c-25 0-57 8-76 20-43 27-102 26-137-2-39-31-102-30-137 2-77 71-78 72-158 70-41-2-84-2-95-1-29 2-95 68-95 95 0 13-10 35-22 49-13 14-38 44-57 65-30 35-40 40-89 45-88 9-138-1-151-30-11-24-14-25-74-19-34 4-73 15-87 25-14 10-41 22-60 26-19 4-49 19-67 34-27 21-32 31-28 52 10 45-21 104-65 124-37 17-42 17-105 0l-66-18-73 37c-56 28-77 44-86 67-23 54-34 59-133 59-58 1-107 7-132 16-22 9-63 21-91 26-39 8-54 17-67 40-15 26-15 34-2 86 20 75 19 88-10 147-13 28-25 66-25 86 0 41-29 84-62 93-37 9-89 81-95 129-3 26-14 51-28 64-13 12-26 32-30 43-3 11-10 20-14 20-5 0-14 15-22 33-7 17-26 48-41 68l-29 36-107 7c-97 6-109 9-134 34-16 15-36 42-45 60-18 38-46 52-104 52-36 0-40 3-46 30-14 72-117 107-168 56-13-13-40-29-60-36-19-6-35-16-35-21 0-7-51-39-64-39-2 0-9 14-15 30-5 17-16 30-24 30-13 0-67 50-67 63 0 4 15 7 34 7 35 0 66 21 66 45 0 25-31 45-70 45-39 0-50 11-50 50 0 36-34 43-180 35-160-8-182-2-223 67-56 95-97 109-194 67-33-14-73-22-125-23-52-2-83-8-95-18-10-8-44-20-75-27-33-7-63-20-70-30-10-14-27-18-77-18-59 0-66-2-87-29-22-27-29-29-104-32l-80-4-49 51c-44 46-54 51-105 57-35 4-65 15-81 28-82 70-83 71-190 74-86 3-103 7-123 25-19 17-36 22-81 22-55 0-60-2-99-43-23-24-42-47-42-50 0-4-18-18-40-31-45-28-100-107-100-145 0-26-39-76-59-76-6 0-44 33-85 73-90 87-138 118-192 124-33 4-45 1-67-19-22-21-40-26-111-31-142-10-203-55-193-143 4-42 12-53 78-118 41-39 83-76 94-82 16-10 18-15 9-30-9-16-28-20-107-24-88-5-97-7-121-32-14-16-29-28-35-28-5 0-12-9-16-19-3-11-15-23-25-26-10-3-31-26-47-50-15-24-37-48-49-54-16-7-23-22-28-59-7-57-14-64-78-82-26-7-53-19-59-26-6-8-24-14-40-14-30 0-49 25-63 81-7 32-69 89-96 89-11 0-26 12-34 28-8 15-29 42-46 60-39 40-89 44-123 9-52-55-72-44-126 70-11 22-29 44-40 48-11 3-28 21-39 39-13 23-33 38-59 46-57 19-63 27-63 86 0 50-16 84-40 84-5 0-12 16-16 35-7 42-18 50-67 58-21 3-51 17-68 31-24 20-42 26-80 26-43 0-52-4-76-32-16-18-47-52-70-77-38-41-44-44-65-32-57 30-71 40-82 62-10 19-20 24-49 23-45-1-67-18-67-51 0-14-9-42-20-62-11-20-24-48-30-63-5-16-16-28-23-28-8 0-22-9-32-20-23-25-57-26-79-1-10 11-32 23-50 27-29 6-61 27-111 72-32 29-88 67-117 80-16 6-28 16-28 21 0 16-70 31-147 31-71 0-74-1-115-40-24-22-48-55-54-73-8-24-17-32-35-32-19 0-26 8-35 40-10 38-12 40-56 43-38 2-49-1-61-19-13-18-22-20-59-15-65 9-69 9-126-3-70-14-72-16-72-62 0-29 6-45 24-60 21-18 24-29 24-102 2-94-7-119-33-97-13 11-55 13-188 11-164-2-174-3-208-27-19-13-38-24-42-24-4 0-41-34-82-75-58-57-82-75-104-75-63 0-127-110-141-241-9-88-9-90-54-134-54-52-81-129-74-206 3-32 0-56-9-68-7-11-16-41-20-68-8-60-29-112-49-120-9-3-35 14-69 46-29 28-61 51-69 51-21 0-36 32-36 78 0 43-10 56-53 66-16 4-38 18-50 32-20 23-32 26-107 31-47 3-97 12-112 19-15 8-49 14-76 14-62 0-132-47-132-88 0-36-63-102-95-102-15 0-31-10-41-25-24-37-49-40-107-12-41 20-74 27-151 31-54 3-101 8-104 11-3 3 2 19 11 34 9 16 17 39 17 52 0 13 17 37 43 61 36 34 43 47 52 100 10 58 12 60 48 73 56 19 69 40 63 103-4 45-12 62-51 109l-46 56 23 24c29 31 30 115 2 162-18 30-18 32 1 63 13 22 19 52 19 99 1 57-2 71-22 92-20 21-24 38-29 123-6 113-13 125-80 148-41 14-51 14-104-1-48-13-68-26-105-65-24-26-53-48-63-48-10 0-34 11-54 24-20 14-52 28-71 32-20 3-41 12-47 20-7 8-31 19-54 25l-43 11 14 33c15 37 9 220-9 243-16 20-91 15-112-8-22-24-48-26-66-4-7 9-29 23-48 32-20 9-43 31-51 47-9 17-23 41-32 55-10 14-21 61-27 107-6 58-15 90-30 109-11 15-21 31-21 37 0 6-10 21-22 35-20 20-24 38-29 120-5 96 5 151 31 167 15 9 12 51-5 65-8 6-34 14-57 17-24 3-57 11-75 19-17 8-39 14-48 14-35 0-53 19-60 66-11 77-6 74-124 74l-106 0-16-39zm143-68c-3-34 0-42 16-47 11-4 27-18 36-31 9-14 25-25 35-25 10 0 30-9 44-20 14-11 30-20 35-20 30 0 42-33 42-113 1-169 15-216 74-252 13-7 19-30 23-88 4-55 11-84 24-99 11-11 19-29 19-39 0-10 11-30 25-45 14-15 25-33 25-40 0-44 135-134 200-134 27 0 42-7 63-31 32-37 34-59 7-84-10-9-22-37-26-62-8-57 10-78 76-87 27-4 61-13 77-21 15-8 40-15 55-15 15 0 36-10 47-21 11-12 29-27 39-33 11-6 31-19 46-30 42-30 75-24 114 20 83 95 95 106 126 111 53 8 64-10 72-117 5-68 12-104 26-128 20-32 20-32-1-68-26-43-28-122-5-170 15-32 15-38 1-72-15-35-20-69-18-119 1-12 15-36 31-53 17-17 30-41 30-55 0-15-11-31-30-45-16-12-30-28-30-35 0-8-9-20-20-28-10-7-24-34-30-61-7-32-21-58-40-76-17-16-30-39-30-52-1-12-7-34-15-48-8-14-14-51-15-82 0-60 16-88 50-88 11 0 29-10 40-22 19-21 31-23 113-24 165-1 228-12 263-46 18-16 35-43 38-60 3-16 15-41 26-55 17-22 20-41 20-118 0-79 3-97 23-126 25-37 57-47 92-29 37 20 81-9 88-58 7-43 23-59 82-86 49-22 136-23 197-1 52 18 75 19 80 3 9-25-15-134-33-153-15-17-19-44-25-174-8-172-12-181-75-181-49 0-90-20-108-54-14-26-7-40 63-116 8-8 19-35 26-59 6-24 18-54 25-65 7-12 17-38 20-58 4-20 16-44 26-54 10-9 19-22 19-28 0-6 18-36 40-67 30-43 48-58 80-68 22-6 38-16 36-20-3-5-33-14-66-20-33-7-76-19-95-26-44-19-70-19-89 0-47 48-95 48-143 3-21-20-33-21-233-20-177 2-214 4-235 18-15 10-55 19-94 22-60 4-76 1-127-23-33-15-67-37-76-49-15-18-27-21-100-21-71 0-88 3-112 23-25 19-41 22-113 22-46 0-94 5-106 11-12 7-61 49-108 95-63 60-96 84-122 89-19 4-135 4-258 0-123-3-289-7-369-8-85-2-157-8-173-15-16-7-47-12-70-12-51 0-86-20-165-96-80-77-104-98-119-104-7-3-38-29-67-58-42-41-56-63-61-93-8-43-22-54-94-65-48-8-73 14-65 56 6 26-16 92-47 140-5 8-19 30-30 48-28 43-58 49-114 22-25-12-48-26-51-32-17-28-147-64-303-83-30-4-69-14-87-21-46-19-144-18-172 2-13 8-51 24-85 34-57 16-66 16-93 2-36-18-114-98-114-116 0-7-7-19-16-27-25-20-58-91-60-129-1-19-5-49-9-66-4-20-2-44 8-65 20-45 46-178 42-209-2-14-9-71-16-128-12-99-14-104-42-119-19-9-41-13-61-8-17 3-78 10-136 14-127 10-182 33-204 85-19 45-57 70-93 62-25-6-47-20-151-93-22-15-25-15-50 4-15 11-35 36-45 56-9 21-21 37-26 37-5 0-24 25-42 57-19 31-44 66-56 78-12 12-25 41-29 65-7 45-8 45-217 263-38 39-73 82-78 96-13 33-2 94 22 122 25 29 24 60-2 93-12 15-23 44-26 65-4 32 0 43 26 73 17 20 31 40 31 46 0 5 7 15 15 22 22 19 36 77 24 104-13 27-59 56-90 56-13 0-41 12-63 28-38 26-43 27-204 31l-164 3-20 34c-31 53-58 45-145-42-29-30-59-54-65-54-7 0-24-9-38-20-37-29-161-29-190 0-27 27-25 54 4 68 37 17 117 86 133 115 11 21 121 71 180 82 54 10 113 45 119 72 4 13 14 28 24 33 10 5 21 22 25 37 3 16 17 39 29 53 34 37 58 124 63 226l5 92-40 41c-24 24-59 48-86 57-66 23-70 50-17 105 36 38 41 49 41 89 0 33-6 52-19 64-12 11-20 35-23 73-4 41-10 60-26 72-11 9-24 28-28 44-7 29-38 57-64 57-9 0-26 10-38 23-65 67-126 113-167 123-52 13-124 106-142 183-15 71-39 144-64 199-10 23-19 53-19 66 0 13-13 40-30 61-16 21-30 43-30 50 0 7-6 18-13 24-8 6-29 41-47 78-19 38-44 79-56 93-12 14-24 44-28 67-5 36-2 46 27 82 123 156 146 211 128 306-13 66-1 82 43 56 40-24 78-14 121 33 18 20 42 36 54 36 22 0 65 58 77 105 3 14 17 33 30 42 13 8 24 21 24 27 0 7 21 34 48 60 26 26 54 54 63 64 9 9 35 34 58 54l43 36-7 80c-7 78-7 79 24 115 56 63 163 61 197-4 14-27 18-29 79-29 53 0 68 4 82 20 15 17 30 20 104 20 61 0 90-4 98-14 6-7 39-16 74-20 43-4 67-12 77-25 21-26 53-41 88-41 30 0 101 50 130 91 7 11 23 19 35 19 12 0 44 12 71 26 53 28 99 29 246 4 36-7 115-13 175-14 106-3 185-18 185-36 0-5 3-15 6-23 3-9-4-25-16-37-26-26-30-92-7-119 8-9 17-43 21-76 4-37 15-71 27-89 12-15 27-53 34-84 12-50 11-58-7-94-11-21-24-41-29-44-27-16 11-115 51-134 35-17 115-30 187-30l76 0 41 46c73 81 135 91 203 31l36-32 116 3c97 2 120 6 144 23 15 11 32 17 37 14 17-11 89 15 100 36 7 13 9 48 4 99l-7 79 57 27c82 38 114 90 90 141-14 27-13 37 12 119 15 49 27 101 26 116-1 19 13 40 50 78 28 28 62 56 75 61 27 10 155 11 192 0 21-6 91 1 168 15 25 5 54 53 73 124 19 70 30 88 64 101 38 15 83 55 102 92 11 20 22 27 45 27 29 0 58 23 107 84 22 28 37 13 34-31zm7458-973c17-32 116-51 188-35 25 5 38-1 92-44 55-44 69-51 108-51 39 0 49-5 95-50 28-27 56-50 61-50 6 0 22-9 36-20 46-36 177-16 253 40l41 30 24-25c25-27 38-30 75-16 17 7 27 21 34 48 9 37 10 38 68 46 69 10 94 10 153 1 36-5 49-2 80 20 57 39 117 40 132 2 5-13 16-28 25-33 8-5 24-25 34-44 12-22 37-44 72-63 52-27 55-28 82-12 60 34 116 15 131-46 3-16 23-37 50-55 83-55 103-77 108-119 7-48 44-109 76-124 60-27 92-4 92 67 0 43 33 81 98 114 54 28 70 25 81-18 14-51 71-97 110-88 27 6 47-10 112-92 5-7 32-13 59-13 38 0 54-5 70-22 17-19 32-23 82-23 58 0 62-1 69-27 4-15 14-34 22-42 8-8 17-36 21-63 3-26 15-57 25-68 47-49 67-73 84-98 10-15 35-38 57-52 39-25 40-26 40-84 0-52 3-61 25-75 14-9 25-22 25-29 0-7-11-28-25-47-31-42-35-121-7-146 48-43 97-74 116-74 12 0 37-11 56-25 20-15 47-25 67-25 34 0 189-42 223-60 11-6 20-15 20-21 0-5 13-15 29-20 16-6 32-17 35-24 3-8 21-17 40-20 19-4 42-16 52-26 22-25 69-24 101 1 30 24 66 26 83 5 10-12 8-22-9-50-12-20-21-45-21-55 0-29 52-59 128-73 39-8 81-23 97-35 17-14 42-22 65-22 22 0 48-8 63-20 40-31 74-26 119 20 51 51 100 55 141 12 15-15 27-34 27-40 0-7 7-15 16-19 9-3 24-25 35-49 10-24 23-44 28-44 6 0 16-11 23-24 7-14 31-37 53-52 37-26 48-28 137-29 83 0 100-3 120-21 13-11 45-33 71-48l49-28 22 21c12 12 30 21 40 21 10 0 35 5 56 11 31 10 41 9 64-6 27-18 34-43 15-62-5-5-15-86-20-179-13-214-15-233-20-236-47-29-96-48-144-57-48-9-66-18-92-46-21-22-33-45-33-62 0-18-13-42-35-66-19-21-35-43-35-49 0-5-11-23-25-40-14-16-25-35-25-42 0-7-9-21-19-30-11-10-22-29-26-44-3-14-15-38-26-53-21-31-24-51-9-80 8-14 7-25-5-41-9-15-15-45-15-85 0-82-12-113-45-113-15 0-36-11-49-25-23-24-27-25-168-25-142 0-254-13-272-31-21-19-44-9-51 22-9 40-52 126-82 162-17 21-23 41-23 76 0 41-5 52-36 82-33 32-39 34-101 33l-65-1-152-153-151-153 2-63c2-41-1-66-10-71-6-4-120-8-252-8-224-1-243-2-284-22-24-12-51-19-60-16-68 22-83 35-163 141-18 23-38 42-44 42-7 0-25 11-41 23-31 26-150 67-194 67-47 0-132 21-165 41-17 10-49 19-71 19-34 0-45-5-67-34-14-19-26-46-26-60 0-13-5-37-11-53-22-55-29-241-12-338 8-49 19-97 24-107 5-9 9-21 9-27 0-14-79-67-113-75-17-4-35-19-45-38-26-48-49-68-79-68-15 0-37-10-51-22-20-20-34-23-104-23-61 0-82 4-91 16-22 29-56 40-139 43-46 2-96 9-113 16-16 6-71 16-122 21-70 6-99 14-127 32-51 35-83 77-91 121-9 44-73 129-114 151-20 10-32 25-36 47-7 34-60 98-81 98-7 0-39 22-71 50-32 27-63 50-69 50-13 0-69 60-77 83-11 30-38 33-59 6-10-13-23-30-28-36-6-7-28-13-50-13-27 0-48-8-69-26-34-28-38-55-16-94 8-14 14-30 15-37 0-19-41-53-90-75-25-11-52-25-60-32-8-7-36-16-63-19-26-4-65-16-87-27-21-11-50-20-63-20-13 0-41-11-61-25-62-42-76-32-76 54 0 39 6 56 30 87 26 32 30 45 28 82-5 68-30 82-166 91-110 7-142 18-142 48 0 8-11 25-25 38-20 21-33 25-73 23-40-2-55 3-81 24-36 31-95 42-184 35-40-3-90 2-142 14-44 10-102 22-129 26-46 7-51 11-59 43-5 19-17 44-28 55-10 11-49 52-85 90l-66 70-61 1c-63 2-137 27-186 65-13 11-31 19-41 19-9 0-39 12-66 26-30 16-74 28-116 33-42 4-74 14-87 25-10 10-43 21-73 25-55 7-84 23-175 98-42 35-59 43-92 43-52 0-72-27-70-96 1-28-3-60-10-72-12-23-18-24-117-26-39-1-70-8-87-19-15-10-51-22-80-27-33-6-57-17-66-30-18-27-81-27-105-1-9 10-34 21-54 25-35 5-102 56-102 76 0 12-59 30-99 30-26 0-51 11-91 40-30 22-64 44-76 49-26 12-74 68-74 87 0 21-37 54-61 54-14 0-42-22-75-57-45-48-53-63-48-85 8-40-22-44-87-11-30 16-66 36-80 46-30 20-62 13-93-22-19-21-113-61-145-61-10 0-24-7-31-14-6-8-28-20-48-27-20-6-46-19-57-29-11-10-31-21-45-25-37-11-130-65-130-76 0-5-11-19-25-31-37-32-33-69 12-112 20-19 52-37 70-41 25-4 33-11 33-27 0-26-27-58-50-58-18 0-80-73-125-149-34-57-64-66-105-31-12 11-38 23-58 26-35 7-115 44-164 77-42 29-97 20-125-21-12-18-23-38-26-45-2-8-29-12-83-10-181 3-239 9-284 31-25 12-51 22-58 22-8 0-26 8-40 19-15 10-44 24-65 30-47 16-41 27 20 36 36 5 57 16 86 43 63 61 45 112-44 119-39 4-59 11-72 27-49 58-88 128-96 170-5 26-16 55-25 65-9 10-16 27-16 38 0 11-8 31-19 44-53 69-47 105 15 93 28-5 38-1 62 23 28 28 29 30 36 182 5 128 10 160 26 187 11 17 20 44 20 60 0 16 9 47 21 68 28 52 23 112-11 138-24 17-29 18-95 2-39-8-85-23-103-31-31-16-34-15-63 6-17 13-43 26-58 30-19 5-30 18-39 47-18 53-71 87-135 87-60-1-67 11-67 115 0 59-4 83-15 92-9 7-20 32-26 56-6 24-17 49-25 55-8 6-14 24-14 39 0 21 7 30 28 39 35 15 96 86 106 124 8 35 48 52 89 37 17-5 55-10 85-10 68 0 156-41 172-79 19-48 70-109 98-119 15-5 49-29 75-53 70-66 133-102 163-95 34 9 60 71 69 166 5 60 11 78 28 92 20 15 22 29 25 119 4 109 9 120 78 199 12 14 27 45 32 70 6 25 17 63 26 85 8 22 15 55 16 73 0 37 14 41 39 10 36-44 111 14 111 86 0 16 10 38 23 51 12 13 30 35 40 49 11 15 31 32 45 38 45 19 330 27 377 11 57-19 94-6 121 43 29 51 37 93 26 142-7 28-6 46 4 63 7 13 13 38 14 56 0 38 12 48 41 32 16-8 28-8 48 1 23 10 28 9 46-12 30-36 76-52 116-39 63 18 163 76 175 100 22 44 60 53 110 26 16-8 38-15 48-15 11 0 34-18 53-40 41-47 132-110 160-110 11 0 32-11 47-25 23-21 37-25 90-25 47 0 67 4 77 17 8 9 29 22 46 30 19 8 39 27 48 46 35 73 56 107 64 107 5 0 24-12 42-27 43-36 108-36 148-1 14 13 45 37 69 52 38 26 48 28 100 23 32-4 66-9 75-13 16-6 47-93 47-132 0-12 4-23 9-27 5-3 17-27 26-55 14-41 22-51 50-60 18-6 41-22 49-36 9-13 26-24 39-24 41 0 53-15 38-47-11-25-10-29 9-45 12-10 29-18 38-18 9 0 37-18 64-41l48-40 60 33c75 41 94 34 98-38 4-59 24-85 61-78 27 5 40-5 126-100 34-37 38-38 85-34 31 3 64 15 88 32 28 19 50 26 88 26 56 0 60 3 92 48 22 31 22 35 8 51-24 26-19 45 14 58 21 8 36 25 50 55 10 24 41 64 67 90l48 47 90-2c101-2 123 6 154 57 36 58 30 71-86 182-91 88-104 104-88 110 11 4 44 18 74 31 52 24 56 24 88 9 33-16 35-15 69 10 18 15 34 30 34 35 0 5 9 9 20 9 11 0 20-7 20-15 0-8 9-19 20-25 11-6 54-45 95-86l76-76 52 6c33 5 61 15 75 29 74 69 92 92 92 119 0 19 13 41 44 72 24 24 48 45 53 47 5 2 24 23 43 47 38 47 45 50 60 22zm-11989-713c14-17 31-49 38-69 7-20 18-42 26-48 8-6 19-27 25-46 6-19 15-34 20-34 5 0 12-9 15-20 4-11 18-31 31-43 17-16 26-38 31-75 3-29 14-61 23-72 10-11 23-51 30-88 14-79 35-136 67-175 13-16 23-35 23-43 0-25 73-91 109-99 32-7 114-63 184-127 16-16 34-28 39-28 5 0 16-17 25-37 8-21 21-45 28-53 7-8 15-31 19-51 3-20 15-44 26-54 11-10 20-28 20-39 0-19-42-69-100-118-34-30-26-72 21-106 22-17 57-33 77-37 22-4 50-20 69-40 38-39 42-76 18-145-8-23-15-52-15-64 0-11-14-38-30-60-16-21-32-51-35-66-10-47-74-96-142-109-76-15-117-36-173-90-25-24-61-54-80-67-84-57-100-71-121-98-22-28-22-29-5-61 10-18 34-48 53-67l34-33 107 0c120 0 123 1 219 92 61 57 84 60 108 13 16-31 42-39 63-17 9 8 50 12 130 12 109 0 120-2 166-27 27-16 57-28 67-28 10 0 26-11 34-24 15-22 15-27-1-58-9-18-25-43-36-54-27-30-34-115-14-178 12-38 12-54 3-70-6-12-11-55-11-97-1-89-6-81 171-264 102-106 122-132 128-166 4-22 17-52 28-67 12-15 27-35 32-44 6-9 39-54 74-99 60-78 63-85 64-138 0-45-5-64-26-95-15-21-27-44-27-51 0-7-7-18-14-25-8-6-22-34-31-61-18-54-77-118-135-147-19-9-45-33-57-52-13-19-28-41-34-48-6-7-15-30-21-50-5-20-16-44-23-52-7-8-17-31-22-50-8-31-13-35-47-38-27-2-45 2-60 16-11 10-49 26-84 35-59 16-65 16-98 1-41-19-59-44-69-94-9-40-29-70-97-144-85-91-98-109-98-130 0-40-11-44-110-43-52 0-112-5-133-12-22-8-53-10-73-6-48 8-71-1-90-36-8-17-29-43-45-57-17-15-44-39-60-54-16-15-42-31-57-34-32-8-132-71-132-84 0-5-10-12-22-16-69-20-126-56-133-81-6-25-8-26-65-20-61 7-90-6-90-38 0-18-48-55-70-55-25 0-70 49-70 75 0 29-46 131-76 170-97 125-153 183-182 190-18 3-35 19-49 45-28 48-29 65-3 97 11 14 20 31 20 38 0 7 12 20 26 30 24 16 26 21 22 76-5 68-29 109-74 124-16 6-53 26-83 45-30 19-68 44-85 55-95 59-151 126-160 189-6 36-18 55-67 105-58 59-61 61-111 61-33 0-58 6-69 16-9 8-50 24-91 34-83 21-168 56-168 70 0 12-67 30-85 24-7-3-26-24-42-46-28-41-28-42-28-197 1-150 2-158 29-214 21-44 27-68 23-94-4-20-9-38-12-42-4-3-44-6-90-6-76 0-86 2-100 22-8 12-32 27-53 34-20 6-41 15-47 19-14 11-110 30-150 30-19 0-37 5-41 11-8 13-143 79-161 79-7 0-20 11-29 25-21 31-61 33-99 4-24-20-35-21-104-16-85 7-177 37-201 67-8 10-44 41-79 70-84 69-120 74-218 31-62-27-83-31-160-31-87 0-89-1-116-32-16-17-32-39-38-50-16-30-53-48-120-59-35-6-79-19-97-30-49-29-75-24-115 20-19 21-49 47-65 57-17 10-36 32-43 48-23 62-69 154-83 165-8 7-18 25-21 41-3 15-15 36-25 45-45 41-46 125-1 140 11 3 34 22 50 41 29 32 31 40 31 113 0 62-4 81-17 92-37 30-110 58-173 65-57 6-161 49-180 75-3 3-20 14-37 23-39 20-41 35-8 67 13 13 32 32 42 42 27 27 75 74 105 103 16 15 46 36 69 47 22 11 46 30 51 43 14 31 68 48 124 39 36-5 47-12 55-31 13-35 76-93 124-115 48-22 134-24 190-4 22 8 60 15 85 15 52 0 106 29 119 63 11 27 39 52 69 62 12 3 30 17 38 31 15 22 23 24 98 24 97 0 189 15 231 38 46 25 213 193 220 222 7 28 62 90 81 90 6 0 27 15 46 33l35 33 109-1c60-1 137-5 170-9 61-8 62-8 101 28 33 29 42 45 47 84 3 27 17 63 31 82 21 28 25 45 25 101 0 57 4 72 25 97 21 25 25 40 25 95 0 97 16 112 117 112 43-1 125-4 183-7 58-3 137-1 175 4 74 11 162 49 172 74 3 9 16 20 29 25 13 4 24 15 24 23 0 9 9 20 19 26 19 9 65 98 77 146 3 12 17 32 30 45 13 12 24 28 24 35 0 7 9 22 21 33 18 16 21 33 23 132 2 63-1 122-6 133-15 28 10 107 41 133 24 19 26 28 27 105 1 45 2 92 3 103 1 11 21 42 46 70 33 35 45 58 45 80 0 16 9 45 20 63 24 39 25 65 5 82-8 7-17 27-21 46-5 29-1 39 25 69 17 20 31 40 31 45 0 5 17 18 39 29 31 16 40 28 51 65 19 70 40 82 150 90 60 5 104 13 119 23 14 9 56 19 95 23 42 5 74 14 80 23 6 7 26 22 45 33 18 10 43 25 55 31 12 7 56 13 101 13 78 0 81-1 106-33zm8807-2112c25-25 48-45 52-45 4 0 19-11 33-24 14-13 40-27 57-31 16-4 35-15 40-26 9-15 22-19 66-19 53 0 56-2 101-50 32-35 56-52 81-56 20-4 50-15 66-25 17-9 49-20 71-23 33-6 46-3 73 18 20 14 55 27 85 31 29 4 61 15 72 25 15 14 42 19 115 22 73 3 104 9 130 24 33 19 35 24 38 77 3 48 6 57 21 57 10 0 26-11 35-25 10-14 30-27 51-31 20-3 40-14 45-24 6-12 27-19 67-24 34-4 66-14 78-25 13-13 42-21 88-25 43-4 78-13 95-25 15-11 46-25 69-31 23-6 45-15 48-20 3-5 19-16 35-24 17-9 43-23 58-31 16-8 59-17 95-19 58-3 72-8 104-36 21-18 44-45 52-59 8-14 25-39 37-54 13-16 24-34 24-40 0-6 12-24 27-39 22-23 35-28 74-28 26 0 69-6 95-14 114-33 129-35 194-26 74 11 118 1 162-35 16-14 48-26 78-30 46-6 53-11 68-41 18-39 43-48 157-59 52-5 78-13 103-32l33-24-26-30c-22-27-25-39-25-112 0-45 3-92 6-103 13-48 104-59 152-19 16 13 49 27 73 31 24 4 58 15 74 25 17 10 51 21 75 25 25 4 54 14 65 24 11 10 37 23 57 29 21 7 40 17 44 22 3 5 21 16 39 23 26 11 35 22 40 48 4 18 2 45-3 59-15 38 2 62 40 54 21-5 35-2 49 11 19 17 21 17 62-6 23-12 51-31 63-41 11-11 25-19 30-19 16 0 121-103 137-135 8-17 42-54 76-83 47-41 63-62 71-95 6-23 15-49 20-57 6-8 19-29 31-46 39-61 85-83 197-94 57-5 112-15 124-21 12-6 66-15 120-19 79-6 104-12 121-28 53-49 195-53 258-6 23 16 46 24 75 24 48 0 74 19 74 54 0 27 11 37 60 56 60 24 120 70 127 97 3 15 0 40-7 57-34 84-47 331-22 416 32 105 53 130 81 96 7-8 31-18 54-21 23-4 56-13 72-20 17-7 62-16 102-19 39-3 82-10 95-15 24-9 104-84 148-140 14-17 45-47 69-66 39-31 50-35 105-35 43 0 73 6 101 21 36 20 54 21 235 21 109 0 207-5 222-11 33-13 84 3 98 29 6 10 10 55 10 99 0 69 3 80 19 86 10 3 44 33 75 68 51 56 93 99 151 157 32 31 89 27 114-9 12-16 21-42 21-58 0-15 14-48 30-72 17-24 30-50 30-58 0-8 9-26 19-41 11-15 22-48 26-74 4-34 12-51 27-59 29-15 101-4 150 23 36 21 54 23 172 23l131 0 3-58c2-39-2-64-12-79-22-31-20-70 4-101 16-20 20-40 20-104 0-69-3-84-25-113-14-19-25-38-25-43 0-14-64-87-76-87-18 0-24-25-24-95 0-54 3-66 20-75 30-16 53-66 40-89-5-11-10-33-10-48 0-16-11-44-25-63-17-24-25-47-25-77 0-49-21-74-85-103-37-17-73-46-185-153-26-24-54-46-63-50-18-7-67-100-67-127 0-9-12-21-27-27-16-7-35-17-43-22-8-5-27-12-42-15-15-4-30-15-33-26-4-11-22-27-40-34-18-8-41-27-51-43-9-15-25-40-36-55-10-15-21-42-25-60-3-18-17-43-30-55-22-21-23-29-24-155-2-212-5-252-21-283-9-17-18-73-22-130-4-55-13-134-21-175-7-41-16-123-20-182-6-100-5-111 17-149 22-40 22-41 4-72-11-18-25-44-33-59-8-16-15-28-16-28-95-13-108-12-141 14-39 29-77 34-96 11-16-20-49-19-72 1-10 10-40 19-67 22-41 4-55 0-83-19-29-21-48-25-145-29-98-4-114-8-132-26-11-12-35-24-55-28-19-4-39-13-43-20-5-8-37-15-83-19-41-3-87-11-102-18-22-9-34-10-53-1-48 22-87 15-127-24-35-32-38-40-38-90 0-63-14-75-54-48-21 13-41 16-92 11-69-5-167 14-194 38-8 7-31 17-49 22-27 7-37 16-43 40-4 17-15 36-23 43-8 7-20 30-25 51-10 37-36 59-125 104-15 8-22 24-26 62-4 28-14 62-23 74-9 13-19 45-22 71-6 46-33 93-82 143-11 11-23 34-26 52-4 17-14 37-22 44-8 6-14 26-14 45 0 18-5 68-11 110-13 87-45 135-104 154-41 14-102 4-114-18-9-15-11-15-28 1-11 9-35 17-56 17-28 0-43 7-66 33-17 17-31 38-31 45 0 7-8 29-19 50-10 20-22 53-26 72-9 42-76 110-109 110-12 0-32 11-44 25-12 14-27 25-33 25-6 0-24 11-41 25-16 14-36 25-44 25-7 0-21 11-30 25-13 20-24 25-59 25-49 0-56-7-83-75-20-49-21-50-63-50-24 0-55-6-68-14-19-10-55-12-154-9-146 5-157 1-157-62 0-20-12-63-26-95l-27-58-74 7c-65 5-80 10-109 36-37 32-60 35-147 21-32-5-53-15-63-29-8-12-20-22-25-22-6 0-27-11-47-25-23-16-51-25-74-25-24 0-46-8-65-24-15-12-38-28-50-35-13-6-26-24-29-39-6-23-56-82-70-82-3 0-18 10-34 22-23 17-30 30-30 56 0 70-106 132-262 152-111 14-178 8-203-20-11-12-31-20-50-20-33 0-85 32-85 53 0 6-12 23-26 37-14 14-49 51-78 83-60 65-76 69-156 37-28-11-59-20-69-20-20 0-121 96-121 115 0 14-65 75-80 75-5 0-27-9-49-20-30-17-65-22-162-27-73-3-136-11-153-19-16-8-54-14-85-14-73-1-132-15-148-36-9-12-35-19-93-24-49-4-87-13-98-23-9-8-33-22-52-31-19-9-46-23-60-31-14-8-34-15-46-15-11 0-35-11-54-25-42-31-58-31-100 0-49 36-85 33-125-11-29-31-36-34-55-24-33 18-76 3-110-40-34-43-36-59-15-100 17-33 11-115-10-140-7-8-20-31-28-50-8-19-26-45-40-58l-25-23-38 20c-26 14-57 21-95 21-47 0-62-5-94-30-45-35-58-37-93-10-22 18-35 20-81 15-31-4-68-11-82-16-19-8-42-6-85 6-33 10-63 21-69 26-13 13-27 118-29 217-1 68 2 86 16 96 26 19 74 117 87 176 6 28 19 65 28 83 12 22 17 57 17 113 1 68-2 85-19 104-29 32-103 80-144 93l-36 12-2 115c-1 63-2 134-3 158 0 29-6 47-20 59-11 10-20 23-20 30 0 27-270 273-300 273-6 0-33 22-60 48-39 39-49 57-55 95-9 60 9 137 38 159 19 14 22 29 26 99 2 59 9 90 21 108 10 15 21 47 25 73 3 26 10 50 15 53 21 13 79 113 85 147 4 21 14 43 22 50 8 7 19 23 24 35 5 13 20 28 34 33 14 5 25 14 25 20 0 6 18 17 39 26 30 12 55 35 95 90 31 42 56 79 56 84 0 20 63 79 90 85 46 10 73 51 67 103-5 49-28 79-74 98-32 14-52 52-38 74 3 5 21 17 38 25 18 8 39 18 47 23 38 22 79 43 126 66 28 13 54 28 58 34 3 6 32 14 64 17 35 4 72 17 96 32 44 28 94 27 128-4 11-10 34-22 51-28 20-6 33-18 35-30 9-59 12-65 40-65 52 0 61 16 68 120 6 100 9 120 20 120 3 0 27-20 52-45zm-3730-382c28-15 55-36 58-45 3-9 32-40 65-69 59-51 61-52 157-64 53-7 134-25 180-40l83-27 62 17c34 9 69 23 77 30 8 7 45 27 82 44l67 31 52-20c46-19 74-21 301-21 240-1 251 0 272 20 26 25 39 26 56 6 22-26 133-73 189-80 51-7 130-36 196-73 20-11 66-19 135-24 58-4 137-10 176-14 81-7 118 6 154 56 12 16 26 30 32 30 5 0 40-15 77-32 36-18 89-37 116-43 44-9 50-13 53-37 3-22-4-32-37-53-23-14-41-29-41-34 0-4-11-24-24-44-13-19-27-50-31-68-4-18-15-45-25-59-56-83-70-109-76-140-4-19-15-51-26-70-12-24-18-56-18-101 0-58-4-71-29-103-23-29-30-49-36-110-10-109 1-160 41-199 40-39 76-69 129-107 90-66 117-88 173-140 32-30 70-76 85-102 24-42 27-56 27-148 0-70-5-110-15-130-29-55 13-110 84-110 15 0 36-9 45-19 10-11 30-24 45-31 54-22 64-80 27-150-13-25-26-68-30-97-6-51-47-140-86-190-12-16-20-41-20-64 0-21-4-41-10-44-15-9-12-52 6-87 12-24 15-45 10-90-7-57-6-60 27-93 19-19 42-35 50-35 8 0 34-9 58-20 57-25 93-25 128 1 41 30 96 28 130-5 37-35 75-34 110 5 26 27 33 30 81 27 51-3 54-5 62-35 8-30 5-36-44-87-29-30-64-69-78-87-14-18-37-45-51-59-24-24-27-34-30-117-3-74-8-95-24-113-16-18-20-34-18-81 2-53-1-62-27-93-17-18-30-38-30-44 0-5-11-17-25-26-14-9-25-22-25-30 0-7-9-21-20-31-12-11-22-37-26-67-6-47-16-60-94-133-29-27-60-67-60-78 0-7-5-29-11-50-8-30-18-42-44-53-19-8-39-23-45-34-15-29-65-26-102 5-16 14-35 25-42 25-7 0-27 11-46 25-47 35-101 34-129-1-12-15-21-35-21-44 0-23-19-37-54-42-30-3-39-13-56-62-10-28-11-28-73-22-34 4-77 16-95 27-45 26-64 24-94-8-34-37-38-53-22-85 9-17 10-29 4-33-5-3-14-24-20-45-7-27-20-45-38-54-15-8-51-38-80-65-30-28-59-51-65-51-7-1-25-11-41-24-21-18-29-35-33-70-4-33-10-46-22-47-9-1-66-2-127-3-88-1-116-4-130-17-11-9-37-20-58-24-27-4-50-18-73-43-18-20-33-39-33-44 0-4-15-14-34-22-23-10-42-28-56-55-16-32-26-41-46-41-24 0-26 3-21 30 4 16 1 42-7 57-7 15-20 41-27 58-16 32-28 39-132 79-84 32-114 33-157 1-39-29-44-30-62-12-7 7-21 16-30 20-14 5-18 18-18 51 0 47-13 62-119 141-22 17-61 49-86 73-41 37-51 42-94 42-44 0-52-4-85-40-20-22-39-40-42-40-4 0-31 12-59 26-49 23-53 29-59 67-4 23-19 65-34 92l-27 50-56 3c-41 2-62 8-74 22-22 24-63 26-72 5-3-9-22-24-42-35-20-10-61-44-91-75-63-64-154-115-206-115-25 0-47-9-74-32-34-29-40-38-40-75 0-31-7-50-27-74-25-29-28-42-32-118-3-83-4-87-38-121-46-46-53-67-53-153 0-60-4-77-26-109-30-43-36-44-89-22-49 20-110 11-131-21-19-29-106-40-142-18-19 12-33 12-72 3-26-6-68-9-92-5-23 3-94 2-157-3-87-7-117-13-126-25-19-26-84-67-115-73-16-4-43-24-64-50-41-49-55-54-74-24-11 18-23 20-105 20-71 0-100 4-127 19-56 30-126 39-272 36-119-2-142-6-171-24-43-26-58-26-80-1-9 11-28 20-42 20-45 0-70 85-43 145 6 14 14 25 18 25 4 0 24 27 45 61 21 33 46 64 56 70 26 13 31 74 20 229l-9 135 29 39c38 52 37 77-6 115-32 28-40 30-83 24-56-7-135-48-202-104-44-37-56-42-125-50-51-5-84-15-102-29-17-13-41-20-70-20-28 0-60-8-83-21-48-27-86-21-154 24-100 66-122 77-159 77-87 0-99 38-32 96 41 35 45 42 45 85 0 30-7 55-19 70-24 32-44 95-35 111 4 7 7 41 6 75-3 60-2 64 25 75 54 23 83 58 83 101 0 23 10 55 24 80 14 23 28 65 31 93 9 61-7 98-60 141-29 22-39 39-46 78-5 27-18 58-29 70-16 17-20 36-21 86-1 81-6 95-49 117-19 9-42 31-50 47-8 17-40 56-71 88-67 69-129 95-188 76-51-16-197-167-205-212-3-19-17-44-31-57-14-13-25-29-25-35 0-10-12-21-85-79-33-25-123-39-265-40-80-1-93-9-144-80-18-26-36-12-36 29 0 28 6 37 30 50 17 9 30 19 30 23 0 4 19 28 43 52l42 44 2 91c1 49 5 109 8 132 6 35 2 51-25 101-30 57-36 62-111 96-43 20-79 43-79 50 0 13 57 88 84 111 7 5 23 27 35 47l22 37-23 31c-20 27-22 41-20 105 3 69 1 76-26 106-19 21-41 34-68 38-36 6-39 9-42 41-4 43-18 60-48 60-29 0-54 25-54 55 0 13 14 46 31 74 29 47 34 50 82 56 29 3 78 15 110 26 65 22 101 24 145 8 42-14 110 4 122 34 4 12 14 37 21 55 6 18 34 56 62 85 28 29 58 71 68 93 11 23 25 47 34 54 8 6 17 28 21 47 5 25 14 37 33 44 33 13 86 3 120-21 42-31 115-43 156-26 20 9 37 21 39 28 1 7 9 29 16 48 7 19 19 55 28 80 8 25 22 54 32 65 9 11 24 32 33 48 10 15 24 27 32 27 30 0 140 110 155 154 5 17 21 53 35 80 14 27 25 55 25 61 0 7 7 18 16 25 8 8 22 30 30 49 27 64 150 161 204 161 14 0 24-10 31-30 18-49 102-85 219-93 52-4 117-14 143-23 64-22 125-13 160 24 22 23 28 44 40 132 20 142 19 220-3 342-11 64-14 109-9 120 5 9 9 32 9 50 0 18 7 44 15 58 8 14 21 39 29 55 8 17 31 45 50 64 32 30 39 33 73 26 20-4 51-16 68-28 27-20 41-22 141-20 71 2 124 8 147 18 19 8 80 20 134 26 95 11 200 49 218 79 25 41 94 22 116-32 23-56 18-107-14-132-32-26-35-58-6-87 19-19 28-21 93-15 152 15 228 57 242 134 5 24 23 47 65 85 33 29 72 59 87 67 15 9 58 46 95 82 80 77 75 76 317 85 96 3 190 11 208 17 19 7 115 13 220 14l187 3 53-28zm-10038-103c17-17 33-20 101-20 49 0 91-5 107-14 15-7 44-21 65-30 20-8 37-20 37-26 0-5 18-19 40-30 22-11 40-25 40-30 0-5 10-12 23-16 21-7 71-50 164-142 24-24 60-49 80-56 48-16 52-31 13-51-41-21-110-93-110-114 0-25 60-78 96-86 18-3 40-15 50-26 9-10 22-19 29-19 6 0 25-11 43-24 22-16 51-25 95-29 81-8 164-48 173-84 9-34-18-88-53-107-35-19-83-79-83-105 0-18 23-65 82-169 49-87 98-186 98-198 0-7 28-39 62-71 34-32 75-71 91-88 26-26 36-30 87-30 43 1 63 6 84 23 17 13 43 22 65 22 68 1 122 17 152 46 16 15 29 33 29 39 0 6 12 23 28 37 24 23 37 26 132 31 84 4 113 9 140 26 58 35 58 35 193-75 113-92 119-94 259-97 113-3 128-5 154-26 23-19 37-22 73-18 50 5 86-5 116-33 12-11 48-22 90-28 154-23 264-87 250-145-9-33-29-39-122-40-60 0-79 4-103 21-39 29-61 28-92-5-24-27-33-41-75-123-10-19-27-47-37-62-10-15-21-56-26-91-6-50-16-76-44-115-20-29-36-56-36-62 0-18 141-151 179-168 33-16 95-73 197-184l42-45-20-31c-11-17-28-34-39-37-10-4-19-10-19-15 0-5-13-24-30-42-16-18-36-41-44-50-19-22-86-148-86-161 0-6-9-20-20-32-11-12-26-44-33-72-9-35-31-73-67-117-29-36-57-66-61-66-13 0-31-71-26-99 4-16 0-36-8-48-7-11-20-57-27-103-10-67-17-84-34-92-22-10-54-58-54-80 1-23 54-76 85-84 59-14 60-55 4-115-47-51-59-77-59-125 0-28 8-42 38-70 20-19 51-38 67-43 31-8 95-62 95-79 0-5-15-29-34-52-45-56-103-74-189-58-61 11-120 6-143-13-16-13-19-65-4-74 6-4 17-22 25-41 8-19 19-34 24-34 6 0 11-7 11-15 0-22-57-19-87 5-26 20-87 27-97 11-3-5-26-18-50-30-69-32-75-92-14-125 79-42 96-54 148-106 30-30 65-77 78-103 22-43 23-50 9-65-8-9-18-27-21-39-4-11-13-24-21-27-8-3-21-19-30-36-13-25-14-38-5-65 12-37 48-55 110-55 38 0 50-12 50-47 0-23 71-89 105-97 16-4 33-13 37-19 13-20 9-121-8-203-13-64-14-84-4-118 15-48 15-137 0-186-5-19-10-54-10-78 0-24-9-63-20-88-17-36-20-56-14-103 5-50 3-61-13-77-11-10-24-27-29-36-5-9-37-39-72-67-53-43-70-51-105-51-50 0-59-5-80-45-57-106-77-161-77-209 0-40-4-48-41-77-37-29-50-33-121-37-98-6-109-17-106-114 2-61 0-67-29-97-38-38-52-39-91-6-17 14-33 25-37 25-4 0-18 10-30 23-13 12-47 40-75 62-29 22-63 57-76 77-14 21-28 38-33 38-5 0-11 9-14 19-8 31-74 55-118 42-49-15-104-14-116 2-6 6-13 25-17 41-4 16-16 41-27 54-11 14-19 40-19 62 0 69-82 147-158 149-30 1-98 36-105 55-3 7-22 19-41 26-20 6-36 15-36 19 0 5-13 25-30 46-17 22-30 50-30 66 0 15-11 41-25 57-14 17-25 39-25 50 0 17-33 68-74 114-9 10-22 32-30 50-8 18-31 47-51 63-70 57-124 116-193 213-37 51-50 62-101 81-65 24-90 25-144 10-33-9-43-7-88 18-29 15-55 38-60 52-13 33 6 88 34 97 12 3 31 14 42 24 11 10 39 26 63 35 23 10 42 21 42 26 0 5 24 33 53 63 28 29 63 72 77 96 14 24 35 59 48 78 31 46 25 71-23 98-34 18-40 27-43 59-4 44 9 61 51 68 63 9 209 55 223 69 8 8 17 43 20 84 3 38 8 75 10 83 7 23 32-7 36-42 5-49 66-78 166-80 73-2 79 0 125 33 27 19 62 43 80 52 17 10 35 24 39 32 4 8 21 17 36 21 17 3 45 25 68 53 39 47 39 47 40 137 0 49 4 102 8 116 9 32-27 80-76 99-52 21-108 82-108 118 0 5 22 34 50 66 27 31 54 74 61 95 10 35 9 44-19 100-17 35-37 70-45 79-8 10-20 34-26 54-9 26-20 39-42 47-16 5-29 17-29 26 0 9 16 48 35 86 48 97 49 167 3 227-18 23-39 44-48 46-8 2-26 7-40 10-34 8-66 62-73 126-7 54-40 116-67 125-8 3-31 21-51 40-34 32-36 37-32 79 5 43 3 48-31 79-41 38-93 57-153 57-25 0-50 8-66 20-14 11-30 20-35 20-5 0-22 16-36 35-20 26-25 39-17 52 14 28 43 49 81 62 20 7 51 32 73 57 48 58 50 100 7 144-16 17-30 35-30 40 0 5-8 11-18 15-11 3-48 33-83 66-35 33-76 68-91 77-16 9-28 21-28 27 0 6 22 28 49 48 49 38 108 103 129 144 7 13 33 28 64 39 61 20 153 100 175 153 18 43 9 101-24 158-27 47-76 93-100 93-8 0-26 9-40 20-37 29-69 26-88-9-8-16-18-31-23-33-4-1-26-30-47-62-21-33-48-69-59-81-71-73-110-124-118-152-5-19-17-35-31-39-12-4-53-37-92-74l-70-68-86-4c-62-3-97-10-128-26-52-28-172-31-229-6-20 9-67 20-104 24-60 7-72 12-122 55-67 57-96 56-124-3-17-37-18-37-87-42-49-4-82-12-111-29-60-36-89-25-98 35-9 71-7 239 4 268 5 14 35 52 68 84 48 49 61 71 75 121 9 33 17 75 17 92 0 60 41 172 76 210 36 37 54 83 54 135 0 19 9 41 25 58 14 15 25 35 25 45 0 10 11 28 25 41 14 13 25 29 25 35 0 7 13 26 30 43 16 18 30 37 30 43 0 25 132 149 159 149 17 0 80 75 86 101 4 15 15 35 26 45 22 20 43 86 35 112-9 31 48 81 104 92 52 10 51 9 190 144 25 24 48 44 53 45 4 1 16-8 27-19zm3419-1174c36-21 75-35 108-39 29-3 65-15 80-25 17-12 53-22 93-26 60-6 67-9 102-49 21-24 40-57 43-77 12-70 15-77 39-101 100-99 244-201 321-226 45-15 47-65 3-129-18-27-41-55-51-63-20-14-20-11-1-149 5-34 12-46 35-57 15-8 41-15 56-15 19 0 40-11 62-32 58-57 129-153 144-194 31-81 37-100 41-124 8-40 66-79 128-86 53-6 54-6 102 40 54 51 58 53 76 31 18-22 24-20 77 34 26 27 73 62 103 78 30 16 67 40 81 53 66 62 97 74 121 44 7-9 28-32 46-52 17-19 32-37 32-39 0-3-9-18-21-34-20-28-20-31-4-55 21-33 42-40 63-21 26 24 67 30 106 17 31-10 36-16 36-42 0-16-9-41-20-55-26-34-26-79 0-93 29-16 28-75-2-91-13-6-30-19-39-28-9-9-30-28-48-44-60-53-29-116 74-145 22-6 60-29 85-50l44-39 3-129 2-129-49-54c-28-30-50-59-50-63 0-5-11-13-24-19-13-6-31-26-40-45-15-33-15-37 4-75 12-22 31-44 43-49 12-6 29-15 38-22 13-9 23-6 53 18 20 16 39 36 41 45 8 25 58 42 103 34 25-4 53-1 78 9 21 8 65 17 98 20 39 3 70 13 95 29 20 14 41 26 47 28 17 6 84 89 84 104 0 7 7 19 16 26 9 8 25 32 34 55 10 22 46 68 80 102 54 54 67 62 100 62 47 0 87-31 126-97 29-50 63-85 107-109 25-14 27-18 25-73-3-49 1-64 25-97 16-24 27-53 27-72 0-20 8-39 20-49 11-10 20-22 20-29 0-6 14-23 30-37 37-34 40-81 8-123-13-15-27-53-33-83-9-51-13-57-47-73-44-21-72-67-74-123-1-22-5-59-9-83-6-32-4-46 8-60 8-9 18-29 22-44 4-14 15-34 26-44 27-24 24-36-20-82-50-51-61-72-61-114 0-57 43-91 128-101 35-4 70-17 100-37 25-16 51-30 57-30 7 0 20-9 30-20 23-25 110-27 170-4 22 9 63 20 90 24 28 5 97 21 155 35 106 28 150 52 198 110 7 8 23 15 36 15 13 0 34 9 48 19 41 32 53 12 27-44-21-44-21-51-9-94 20-71 29-131 29-196 1-54-2-64-26-86-16-14-39-43-53-63-14-21-35-50-48-66-13-16-28-55-35-87-13-62-33-94-87-140-33-27-38-28-164-31-72-2-165-4-207-5-56-1-82-7-95-19-28-24-64-30-114-19-36 8-50 6-81-10-71-36-92-64-94-122-1-29-10-68-19-86-13-24-15-36-7-44 20-20 12-71-18-106-29-35-29-35-70-21-38 12-44 11-86-11-25-13-45-28-45-32 0-4-12-19-26-32-32-29-27-46 26-104 39-41 40-45 40-112 0-53-4-71-15-75-8-4-28-25-43-48-23-34-28-53-30-114-1-49 3-83 13-102 8-16 15-42 15-57 0-64 18-97 65-123 25-14 52-35 60-47 8-12 33-27 55-33 28-8 40-16 40-29 0-10 9-30 20-44 11-14 20-30 20-35 0-6 12-19 27-30 16-12 23-24 18-31-9-16-48-7-85 21-23 17-39 20-89 16-35-2-68-11-78-20-10-9-42-19-72-23-43-6-61-14-88-41-18-19-36-48-40-66-8-43-41-98-58-98-7 0-24-9-37-20-41-36-113-80-129-80-9 0-29-10-45-23-25-19-43-22-137-25-103-4-110-3-146 22-35 24-44 26-156 26-116 0-120-1-140-25-18-23-28-26-92-27-66-1-75 1-96 24-45 48-164 49-219 3-21-18-45-25-105-30-43-4-89-14-103-23-14-9-53-19-88-23-34-3-70-13-80-21-10-9-60-20-122-27-111-12-151-6-239 35-25 12-70 17-185 18-120 1-157 5-182 18-17 10-58 22-92 27-33 5-77 18-98 29-22 10-62 22-91 25-29 3-65 13-82 21-22 12-60 16-136 16-94 0-109-2-136-22-43-32-109-31-144 2-35 33-108 35-134 5-44-52-73-62-192-70-114-7-115-7-146 19-38 32-92 34-139 5-32-19-36-20-65-5-37 19-121 21-151 5-24-13-67 5-121 48-23 18-41 23-91 23-54 0-68 4-104 31-23 17-42 35-42 40 0 6 20 31 44 57 50 53 67 89 59 121-3 11-2 32 1 46 5 19 13 25 34 25 39 0 143 26 151 37 3 6 17 16 29 22 27 14 65 92 56 114-3 9 2 43 12 76 19 68 66 121 109 121 26 0 160 102 195 148 11 15 25 34 32 42 23 26 58 81 58 89 0 5-7 14-15 21-22 18-18 76 6 109 20 27 21 42 24 272 2 205 5 250 19 283 17 37 17 41-5 100-27 75-33 83-67 91-27 6-92 58-92 74 0 5 7 14 15 21 21 17 19 36-7 70-25 35-50 38-85 10-34-26-73-27-73 0 0 10 6 23 13 27 25 16 77 110 77 140 0 17-8 38-20 48-11 10-20 24-20 31 0 17-143 160-180 179-33 17-37 32-16 60 13 18 15 17 67-8 68-35 90-34 134 4 42 37 45 69 10 115-14 18-25 39-25 47 0 29 52 31 63 3 10-25 58-29 86-8 14 10 42 22 61 25 63 12 140 103 140 166 0 35-7 49-41 86-27 29-56 49-83 57-81 23-89 72-22 137 51 50 75 115 57 150-7 11-16 21-21 21-5 0-15 6-22 13-7 7-25 20-40 30-35 22-35 37-1 77 19 23 27 46 30 83 2 29 13 69 24 89 11 21 22 61 24 89 4 53 13 71 67 131 62 70 76 94 83 142 4 27 18 60 31 76 13 15 24 32 24 38 0 5 7 15 15 22 8 7 20 29 26 50 12 40 93 132 162 186 32 25 39 36 40 68 1 33-6 45-46 85-25 25-85 85-132 134-48 48-92 87-97 87-6 0-18 6-27 14-9 8-36 33-61 55l-45 40 27 53c15 29 30 77 33 106 3 31 16 67 30 88 14 20 25 40 25 45 0 4 12 25 26 46l26 38 141 0c94 1 150 5 165 13 12 7 36 38 54 68 33 59 56 74 116 74 45 0 52 5 80 51l21 35-38 110c-58 168-64 354-13 367 9 3 19 5 21 6 2 0 29-14 60-33zm-2911-247c18-6 35-22 42-39 7-16 18-35 26-41 22-18 17-57-13-104-21-33-39-48-73-60-90-32-128-56-141-88-13-36-89-112-155-158-58-40-66-71-28-110 16-17 52-48 81-71 29-22 55-47 58-56 3-10 22-28 42-42 46-29 82-69 83-91 0-20-48-65-80-74-36-11-94-64-102-94-25-87 86-204 208-217 59-7 133-38 135-58 1-6 2-36 3-66 1-53 2-56 38-73 59-29 104-86 113-143 4-26 16-66 28-89 11-22 23-47 27-55 4-8 20-17 36-20 43-7 104-58 104-85 0-23-50-127-75-155-40-47-30-96 29-133 25-16 48-38 52-50 3-12 14-31 23-42 20-22 51-102 51-128 0-9-17-35-38-56-21-22-50-60-63-85l-24-46 25-45c26-47 81-99 134-125 37-18 47-62 21-91-17-18-17-22 10-69 8-14 12-34 8-45-6-22-62-74-79-75-6 0-27-12-47-27-20-16-53-39-73-53-20-14-46-34-58-45-32-30-92-27-138 9-27 20-38 36-38 55-1 16-17 44-45 75-52 58-60 55-100-29-18-39-25-70-25-114 0-70-11-81-84-81-34 0-48-5-55-19-7-12-26-20-56-24-92-13-122-53-104-138 6-29 20-66 30-83 23-38 24-84 2-108-9-10-21-28-27-41-8-15-22-23-46-25-45-5-56-15-64-58-5-25-14-38-33-45-14-5-39-21-55-34-16-14-38-25-49-25-11 0-33-9-48-21-24-18-44-21-134-22-96-2-108-4-127-24-27-30-61-29-90 2-13 14-30 25-39 25-18 0-91 48-109 73-15 19-47 23-57 6-12-18-57-31-69-19-7 7-3 16 12 30 19 18 22 31 22 107 0 65-4 91-16 104-15 17-14 21 15 64 34 50 40 98 16 129-8 11-15 28-15 37 0 10-12 31-26 48-17 21-24 39-21 53 6 23-23 90-56 126-16 18-31 22-76 22-64 1-67 3-175 117-66 69-69 75-76 135-16 128-32 204-51 234-10 17-19 38-19 47 0 8-11 22-25 31-31 20-32 45-4 80 23 29 35 91 25 130-4 18-23 33-71 56-36 18-70 41-77 53-6 12-19 28-28 37-9 8-22 38-29 66-11 45-10 57 7 102 19 48 19 54 4 87-9 19-25 38-37 41-30 9-55 35-70 71-11 27-20 33-44 33-17 0-42 11-60 26-28 23-31 31-31 85 0 45 4 61 15 66 28 10 58 84 58 138-1 28 4 56 10 63 6 7 9 39 7 70-9 146-8 156 34 216 21 31 53 65 70 76 37 22 59 57 60 97 1 24 5 28 36 31 44 4 70 27 70 63 0 40 31 89 60 95 41 9 54 19 66 54 6 18 20 40 31 49 11 9 23 24 26 33 3 10 19 20 34 23 15 3 44 14 64 25 52 27 100 33 164 20 53-11 58-10 79 9l22 21 42-21c62-31 170-49 303-51 99-2 121 1 155 18 25 14 69 23 123 27 101 8 144 28 190 88 18 24 50 52 71 61 31 13 41 25 49 55 6 21 36 67 67 103 55 63 83 102 125 168 23 35 51 41 107 21zM21310 3920c0-5 5-10 10-10 6 0 10 5 10 10 0 6-4 10-10 10-5 0-10-4-10-10z"/>
	</g>
</svg>
